<svg width="32" height="32" viewBox="0 0 32 32" fill="none" xmlns="http://www.w3.org/2000/svg">
<circle cx="16" cy="16" r="16" fill="black"/>
<path d="M7.87962 11.5455V21H5.88068V13.4428H5.82528L3.66016 14.8001V13.0273L6.00071 11.5455H7.87962ZM13.5475 11.4162C14.0338 11.4162 14.5016 11.4978 14.9509 11.6609C15.4033 11.824 15.8065 12.084 16.1604 12.4411C16.5174 12.7981 16.799 13.272 17.0052 13.8629C17.2145 14.4508 17.3207 15.1725 17.3238 16.0281C17.3238 16.8313 17.233 17.5484 17.0514 18.1793C16.8729 18.8072 16.6159 19.3411 16.2805 19.7812C15.945 20.2214 15.5403 20.5568 15.0663 20.7876C14.5924 21.0154 14.063 21.1293 13.4782 21.1293C12.8473 21.1293 12.2903 21.0077 11.8071 20.7646C11.3239 20.5183 10.9346 20.1844 10.6391 19.7628C10.3467 19.3381 10.1698 18.861 10.1082 18.3317H12.0795C12.1564 18.6764 12.318 18.9441 12.5642 19.1349C12.8104 19.3227 13.1151 19.4165 13.4782 19.4165C14.0938 19.4165 14.5616 19.1488 14.8817 18.6133C15.2017 18.0747 15.3633 17.3376 15.3664 16.402H15.3018C15.1602 16.679 14.9694 16.9175 14.7293 17.1175C14.4893 17.3145 14.2138 17.4669 13.903 17.5746C13.5952 17.6823 13.2674 17.7362 12.9197 17.7362C12.3626 17.7362 11.8656 17.6054 11.4285 17.3438C10.9915 17.0821 10.6468 16.7221 10.3944 16.2635C10.1421 15.8049 10.0159 15.2817 10.0159 14.6939C10.0128 14.0599 10.159 13.4951 10.4545 12.9996C10.7499 12.5041 11.1623 12.1164 11.6917 11.8363C12.2241 11.5531 12.8427 11.4131 13.5475 11.4162ZM13.5613 12.9858C13.2505 12.9858 12.9735 13.0597 12.7304 13.2074C12.4903 13.3551 12.2995 13.5536 12.1579 13.8029C12.0194 14.0522 11.9517 14.3307 11.9548 14.6385C11.9548 14.9493 12.0225 15.2294 12.1579 15.4787C12.2964 15.7249 12.4842 15.9219 12.7211 16.0696C12.9612 16.2143 13.2351 16.2866 13.5429 16.2866C13.7737 16.2866 13.9876 16.2435 14.1846 16.1573C14.3815 16.0711 14.5523 15.9527 14.697 15.8018C14.8447 15.648 14.9601 15.471 15.0432 15.271C15.1263 15.0709 15.1679 14.8585 15.1679 14.6339C15.1648 14.3353 15.094 14.0614 14.9555 13.8121C14.817 13.5629 14.6262 13.3628 14.3831 13.212C14.1399 13.0612 13.866 12.9858 13.5613 12.9858Z" fill="#F8F8F8"/>
<rect x="19" y="11" width="10" height="10" rx="2" fill="#EA9A37"/>
<path d="M23.2918 19.4876V12.9506H24.9445V19.4876H23.2918ZM20.8497 17.0455V15.3928H27.3866V17.0455H20.8497Z" fill="black"/>
</svg>
