<svg width="73" height="22" viewBox="0 0 73 22" fill="none" xmlns="http://www.w3.org/2000/svg">
<path d="M10.4652 13.4206L12.3051 6.25751H13.2695L13.1616 8.10378L11.1948 15.4952H10.1924L10.4652 13.4206ZM9.08841 6.25751L10.5794 13.3635L10.7126 15.4952H9.64673L7.50861 6.25751H9.08841ZM15.3569 13.3444L16.8288 6.25751H18.415L16.2768 15.4952H15.2109L15.3569 13.3444ZM13.6438 6.25751L15.4647 13.4396L15.7312 15.4952H14.7288L12.7937 8.10378L12.6921 6.25751H13.6438ZM18.9479 12.1389V11.993C18.9479 11.4981 19.0198 11.0392 19.1636 10.6162C19.3074 10.189 19.5147 9.81894 19.7854 9.50594C20.0603 9.18871 20.3945 8.94339 20.7878 8.76997C21.1854 8.59232 21.6338 8.50349 22.1329 8.50349C22.6362 8.50349 23.0846 8.59232 23.478 8.76997C23.8756 8.94339 24.2118 9.18871 24.4867 9.50594C24.7617 9.81894 24.9711 10.189 25.1149 10.6162C25.2587 11.0392 25.3306 11.4981 25.3306 11.993V12.1389C25.3306 12.6338 25.2587 13.0928 25.1149 13.5157C24.9711 13.9387 24.7617 14.3088 24.4867 14.626C24.2118 14.939 23.8777 15.1844 23.4843 15.362C23.0909 15.5354 22.6447 15.6221 22.1456 15.6221C21.6423 15.6221 21.1918 15.5354 20.7942 15.362C20.4008 15.1844 20.0667 14.939 19.7917 14.626C19.5168 14.3088 19.3074 13.9387 19.1636 13.5157C19.0198 13.0928 18.9479 12.6338 18.9479 12.1389ZM20.477 11.993V12.1389C20.477 12.4477 20.5087 12.7396 20.5721 13.0145C20.6356 13.2894 20.735 13.5305 20.8703 13.7378C21.0057 13.945 21.1791 14.1079 21.3906 14.2263C21.6021 14.3448 21.8537 14.404 22.1456 14.404C22.429 14.404 22.6743 14.3448 22.8816 14.2263C23.0931 14.1079 23.2665 13.945 23.4018 13.7378C23.5372 13.5305 23.6366 13.2894 23.7 13.0145C23.7677 12.7396 23.8015 12.4477 23.8015 12.1389V11.993C23.8015 11.6885 23.7677 11.4009 23.7 11.1302C23.6366 10.8552 23.5351 10.612 23.3955 10.4005C23.2601 10.189 23.0867 10.0241 22.8752 9.90565C22.668 9.78299 22.4205 9.72166 22.1329 9.72166C21.8453 9.72166 21.5957 9.78299 21.3842 9.90565C21.177 10.0241 21.0057 10.189 20.8703 10.4005C20.735 10.612 20.6356 10.8552 20.5721 11.1302C20.5087 11.4009 20.477 11.6885 20.477 11.993ZM28.1476 9.93737V15.4952H26.6185V8.63038H28.0778L28.1476 9.93737ZM30.2476 8.58597L30.235 10.0072C30.1419 9.99024 30.0404 9.97755 29.9304 9.96909C29.8247 9.96064 29.7189 9.95641 29.6132 9.95641C29.3509 9.95641 29.1204 9.99447 28.9216 10.0706C28.7228 10.1425 28.5557 10.2483 28.4204 10.3878C28.2893 10.5232 28.1878 10.6881 28.1159 10.8827C28.044 11.0773 28.0017 11.2951 27.989 11.5362L27.64 11.5616C27.64 11.1302 27.6823 10.7304 27.7669 10.3625C27.8515 9.99447 27.9784 9.6709 28.1476 9.39174C28.321 9.11257 28.5367 8.89474 28.7947 8.73824C29.057 8.58174 29.3594 8.50349 29.702 8.50349C29.7951 8.50349 29.8945 8.51195 30.0002 8.52887C30.1102 8.54579 30.1927 8.56482 30.2476 8.58597ZM32.7474 5.74994V15.4952H31.212V5.74994H32.7474ZM37.011 8.63038L34.0227 11.9423L32.3858 13.6172L31.9861 12.3229L33.2233 10.7939L35.1647 8.63038H37.011ZM35.4946 15.4952L33.2677 12.2722L34.2321 11.1999L37.2648 15.4952H35.4946ZM41.8329 13.6363C41.8329 13.484 41.7948 13.3465 41.7187 13.2239C41.6425 13.097 41.4966 12.9828 41.2809 12.8813C41.0694 12.7798 40.7564 12.6867 40.3419 12.6021C39.9781 12.5217 39.644 12.4266 39.3395 12.3166C39.0391 12.2024 38.7811 12.0649 38.5654 11.9042C38.3497 11.7435 38.1826 11.5531 38.0642 11.3332C37.9458 11.1132 37.8865 10.8595 37.8865 10.5718C37.8865 10.2927 37.9479 10.0283 38.0705 9.77876C38.1932 9.5292 38.3687 9.30926 38.5971 9.11892C38.8255 8.92858 39.1026 8.77843 39.4283 8.66845C39.7582 8.55848 40.1262 8.50349 40.5322 8.50349C41.1075 8.50349 41.6002 8.60078 42.0105 8.79534C42.425 8.98568 42.7423 9.24581 42.9622 9.57573C43.1822 9.90142 43.2921 10.2694 43.2921 10.6797H41.7631C41.7631 10.4978 41.7166 10.3286 41.6235 10.1721C41.5347 10.0114 41.3993 9.88239 41.2175 9.7851C41.0356 9.68359 40.8072 9.63283 40.5322 9.63283C40.27 9.63283 40.0522 9.67513 39.8787 9.75972C39.7096 9.84009 39.5827 9.94583 39.4981 10.077C39.4177 10.2081 39.3775 10.3519 39.3775 10.5084C39.3775 10.6226 39.3987 10.7262 39.441 10.8193C39.4875 10.9081 39.5636 10.9906 39.6694 11.0667C39.7751 11.1386 39.9189 11.2063 40.1008 11.2697C40.2869 11.3332 40.5195 11.3945 40.7987 11.4537C41.3232 11.5637 41.7737 11.7054 42.1501 11.8788C42.5308 12.048 42.8226 12.268 43.0257 12.5387C43.2287 12.8051 43.3302 13.1435 43.3302 13.5538C43.3302 13.8583 43.2646 14.1375 43.1335 14.3913C43.0066 14.6408 42.8205 14.8587 42.5752 15.0448C42.3299 15.2267 42.0359 15.3683 41.6933 15.4699C41.3549 15.5714 40.9742 15.6221 40.5513 15.6221C39.9295 15.6221 39.4029 15.5122 38.9715 15.2922C38.54 15.068 38.2122 14.7825 37.9881 14.4357C37.7681 14.0846 37.6581 13.7209 37.6581 13.3444H39.1364C39.1533 13.6278 39.2316 13.8541 39.3712 14.0233C39.515 14.1883 39.6926 14.3088 39.9041 14.3849C40.1198 14.4568 40.3419 14.4928 40.5703 14.4928C40.8452 14.4928 41.0758 14.4568 41.2619 14.3849C41.448 14.3088 41.5897 14.2073 41.687 14.0804C41.7842 13.9493 41.8329 13.8012 41.8329 13.6363ZM46.1789 5.74994V15.4952H44.6562V5.74994H46.1789ZM45.9125 11.809L45.4176 11.8027C45.4218 11.329 45.4874 10.8912 45.6143 10.4894C45.7454 10.0875 45.9273 9.73857 46.1599 9.44249C46.3968 9.14218 46.6801 8.91166 47.0101 8.75093C47.34 8.58597 47.7059 8.50349 48.1077 8.50349C48.4461 8.50349 48.7506 8.55002 49.0213 8.64307C49.2962 8.73613 49.5331 8.88628 49.7319 9.09354C49.9307 9.29657 50.0809 9.56304 50.1824 9.89296C50.2881 10.2186 50.341 10.6162 50.341 11.0857V15.4952H48.8056V11.0731C48.8056 10.7431 48.7569 10.4809 48.6597 10.2863C48.5666 10.0918 48.4291 9.95218 48.2473 9.86758C48.0654 9.77876 47.8433 9.73434 47.5811 9.73434C47.3061 9.73434 47.0629 9.78933 46.8515 9.8993C46.6442 10.0093 46.4708 10.1594 46.3312 10.3498C46.1916 10.5401 46.0859 10.7601 46.014 11.0096C45.9463 11.2592 45.9125 11.5256 45.9125 11.809ZM51.5972 12.1389V11.993C51.5972 11.4981 51.6691 11.0392 51.8129 10.6162C51.9567 10.189 52.164 9.81894 52.4347 9.50594C52.7096 9.18871 53.0438 8.94339 53.4371 8.76997C53.8347 8.59232 54.2831 8.50349 54.7822 8.50349C55.2855 8.50349 55.7339 8.59232 56.1273 8.76997C56.5248 8.94339 56.8611 9.18871 57.136 9.50594C57.411 9.81894 57.6203 10.189 57.7642 10.6162C57.908 11.0392 57.9799 11.4981 57.9799 11.993V12.1389C57.9799 12.6338 57.908 13.0928 57.7642 13.5157C57.6203 13.9387 57.411 14.3088 57.136 14.626C56.8611 14.939 56.527 15.1844 56.1336 15.362C55.7402 15.5354 55.294 15.6221 54.7949 15.6221C54.2916 15.6221 53.8411 15.5354 53.4435 15.362C53.0501 15.1844 52.716 14.939 52.441 14.626C52.1661 14.3088 51.9567 13.9387 51.8129 13.5157C51.6691 13.0928 51.5972 12.6338 51.5972 12.1389ZM53.1263 11.993V12.1389C53.1263 12.4477 53.158 12.7396 53.2214 13.0145C53.2849 13.2894 53.3843 13.5305 53.5196 13.7378C53.655 13.945 53.8284 14.1079 54.0399 14.2263C54.2514 14.3448 54.503 14.404 54.7949 14.404C55.0783 14.404 55.3236 14.3448 55.5309 14.2263C55.7423 14.1079 55.9158 13.945 56.0511 13.7378C56.1865 13.5305 56.2859 13.2894 56.3493 13.0145C56.417 12.7396 56.4508 12.4477 56.4508 12.1389V11.993C56.4508 11.6885 56.417 11.4009 56.3493 11.1302C56.2859 10.8552 56.1844 10.612 56.0448 10.4005C55.9094 10.189 55.736 10.0241 55.5245 9.90565C55.3173 9.78299 55.0698 9.72166 54.7822 9.72166C54.4946 9.72166 54.245 9.78299 54.0335 9.90565C53.8263 10.0241 53.655 10.189 53.5196 10.4005C53.3843 10.612 53.2849 10.8552 53.2214 11.1302C53.158 11.4009 53.1263 11.6885 53.1263 11.993ZM60.7969 9.95006V18.1346H59.2678V8.63038H60.6763L60.7969 9.95006ZM65.2698 11.9994V12.1326C65.2698 12.6317 65.2106 13.0949 65.0922 13.5221C64.978 13.945 64.8067 14.3151 64.5783 14.6324C64.3541 14.9454 64.077 15.1886 63.7471 15.362C63.4172 15.5354 63.0365 15.6221 62.6051 15.6221C62.1779 15.6221 61.8036 15.5439 61.4821 15.3874C61.1649 15.2267 60.8963 15.0004 60.6763 14.7085C60.4564 14.4167 60.2787 14.074 60.1434 13.6807C60.0123 13.2831 59.9192 12.8474 59.8642 12.3737V11.8598C59.9192 11.3564 60.0123 10.8996 60.1434 10.4894C60.2787 10.0791 60.4564 9.72589 60.6763 9.4298C60.8963 9.13372 61.1649 8.90532 61.4821 8.74459C61.7993 8.58386 62.1694 8.50349 62.5924 8.50349C63.0238 8.50349 63.4066 8.58809 63.7408 8.75728C64.0749 8.92224 64.3562 9.1591 64.5846 9.46787C64.813 9.77241 64.9843 10.1404 65.0985 10.5718C65.2127 10.999 65.2698 11.4749 65.2698 11.9994ZM63.7408 12.1326V11.9994C63.7408 11.6821 63.7112 11.3882 63.6519 11.1175C63.5927 10.8425 63.4997 10.6014 63.3728 10.3942C63.2459 10.1869 63.083 10.0262 62.8842 9.91199C62.6897 9.79356 62.4549 9.73434 62.18 9.73434C61.9093 9.73434 61.6767 9.78087 61.4821 9.87393C61.2875 9.96275 61.1247 10.0875 60.9936 10.2483C60.8624 10.409 60.7609 10.5972 60.689 10.8129C60.6171 11.0244 60.5664 11.2549 60.5367 11.5045V12.7353C60.5875 13.0399 60.6742 13.319 60.7969 13.5728C60.9195 13.8266 61.093 14.0296 61.3171 14.1819C61.5455 14.3299 61.8374 14.404 62.1927 14.404C62.4676 14.404 62.7024 14.3448 62.8969 14.2263C63.0915 14.1079 63.2501 13.945 63.3728 13.7378C63.4997 13.5263 63.5927 13.2831 63.6519 13.0082C63.7112 12.7332 63.7408 12.4414 63.7408 12.1326Z" fill="#E3BF86"/>
<rect x="1" y="1" width="70.9942" height="19.9904" rx="3.99807" stroke="#E3BF86" stroke-width="0.999518"/>
</svg>
