<svg width="63" height="21" viewBox="0 0 63 21" fill="none" xmlns="http://www.w3.org/2000/svg">
<path d="M12.796 12.6198C12.796 12.4295 12.7664 12.2603 12.7072 12.1122C12.6522 11.9642 12.5528 11.8288 12.409 11.7062C12.2652 11.5835 12.0622 11.4651 11.7999 11.3509C11.5419 11.2324 11.212 11.1119 10.8102 10.9892C10.3703 10.8539 9.96423 10.7037 9.59201 10.5388C9.22402 10.3696 8.90256 10.175 8.62763 9.95507C8.3527 9.73089 8.1391 9.47499 7.98683 9.18737C7.83456 8.89552 7.75842 8.55926 7.75842 8.17858C7.75842 7.80214 7.83667 7.45953 7.99317 7.15076C8.1539 6.84199 8.38019 6.57551 8.67204 6.35134C8.96813 6.12293 9.31708 5.9474 9.7189 5.82474C10.1207 5.69784 10.5648 5.6344 11.0513 5.6344C11.7365 5.6344 12.3265 5.76129 12.8214 6.01507C13.3205 6.26886 13.7033 6.60935 13.9698 7.03655C14.2405 7.46376 14.3758 7.93537 14.3758 8.4514H12.796C12.796 8.14686 12.7305 7.87827 12.5993 7.64564C12.4725 7.40877 12.2779 7.22266 12.0156 7.08731C11.7576 6.95196 11.4298 6.88428 11.0322 6.88428C10.6558 6.88428 10.3428 6.94139 10.0932 7.05559C9.84368 7.16979 9.65757 7.32418 9.53491 7.51874C9.41225 7.71331 9.35092 7.93326 9.35092 8.17858C9.35092 8.352 9.3911 8.51062 9.47146 8.65443C9.55183 8.79401 9.67449 8.92513 9.83945 9.04779C10.0044 9.16622 10.2117 9.27831 10.4612 9.38406C10.7108 9.4898 11.0047 9.59131 11.3431 9.6886C11.8549 9.84087 12.3012 10.0101 12.6818 10.1962C13.0625 10.378 13.3797 10.5853 13.6335 10.8179C13.8873 11.0506 14.0776 11.3149 14.2045 11.611C14.3314 11.9029 14.3949 12.2349 14.3949 12.6071C14.3949 12.9962 14.3166 13.3473 14.1601 13.6603C14.0036 13.9691 13.7794 14.2334 13.4876 14.4534C13.2 14.6691 12.8531 14.8362 12.4471 14.9546C12.0453 15.0688 11.5969 15.1259 11.102 15.1259C10.6579 15.1259 10.2201 15.0667 9.78869 14.9483C9.36149 14.8298 8.97235 14.6501 8.62129 14.409C8.27022 14.1637 7.99106 13.8591 7.7838 13.4954C7.57654 13.1274 7.47292 12.698 7.47292 12.2074H9.06541C9.06541 12.5077 9.11617 12.7636 9.21768 12.9751C9.32342 13.1866 9.46935 13.36 9.65546 13.4954C9.84156 13.6265 10.0573 13.7238 10.3026 13.7872C10.5522 13.8507 10.8186 13.8824 11.102 13.8824C11.4742 13.8824 11.7851 13.8295 12.0347 13.7238C12.2885 13.618 12.4788 13.47 12.6057 13.2796C12.7326 13.0893 12.796 12.8694 12.796 12.6198ZM18.6775 15.1259C18.1699 15.1259 17.711 15.0434 17.3007 14.8785C16.8946 14.7093 16.5478 14.4745 16.2602 14.1742C15.9768 13.8739 15.759 13.5207 15.6067 13.1147C15.4544 12.7086 15.3783 12.2708 15.3783 11.8013V11.5476C15.3783 11.0104 15.4565 10.524 15.613 10.0883C15.7695 9.65264 15.9874 9.28043 16.2665 8.97166C16.5457 8.65866 16.8756 8.41968 17.2563 8.25472C17.637 8.08976 18.0494 8.00728 18.4935 8.00728C18.9841 8.00728 19.4134 8.08976 19.7814 8.25472C20.1494 8.41968 20.454 8.65231 20.6951 8.95262C20.9404 9.2487 21.1223 9.60189 21.2407 10.0122C21.3634 10.4225 21.4247 10.875 21.4247 11.3699V12.0234H16.1206V10.9258H19.9147V10.8052C19.9062 10.5303 19.8512 10.2723 19.7497 10.0312C19.6524 9.79011 19.5023 9.59554 19.2992 9.4475C19.0962 9.29946 18.8255 9.22544 18.4871 9.22544C18.2334 9.22544 18.0071 9.28043 17.8083 9.3904C17.6137 9.49614 17.4509 9.65053 17.3197 9.85356C17.1886 10.0566 17.0871 10.3019 17.0152 10.5895C16.9475 10.8729 16.9137 11.1923 16.9137 11.5476V11.8013C16.9137 12.1017 16.9539 12.3808 17.0342 12.6388C17.1188 12.8926 17.2415 13.1147 17.4022 13.305C17.5629 13.4954 17.7575 13.6455 17.9859 13.7555C18.2143 13.8612 18.4744 13.9141 18.7663 13.9141C19.1343 13.9141 19.4621 13.8401 19.7497 13.692C20.0373 13.544 20.2869 13.3346 20.4984 13.0639L21.3041 13.8443C21.1561 14.06 20.9636 14.2673 20.7268 14.4661C20.4899 14.6606 20.2002 14.8193 19.8576 14.9419C19.5192 15.0646 19.1258 15.1259 18.6775 15.1259ZM24.1465 9.52998V14.999H22.6175V8.13417H24.0577L24.1465 9.52998ZM23.8991 11.3128L23.3788 11.3065C23.3788 10.8327 23.438 10.395 23.5565 9.99314C23.6749 9.59131 23.8483 9.24236 24.0767 8.94628C24.3051 8.64597 24.5885 8.41545 24.9269 8.25472C25.2695 8.08976 25.665 8.00728 26.1133 8.00728C26.4263 8.00728 26.7118 8.0538 26.9699 8.14686C27.2321 8.23568 27.4584 8.37738 27.6487 8.57195C27.8433 8.76651 27.9913 9.01607 28.0929 9.32061C28.1986 9.62515 28.2515 9.99314 28.2515 10.4246V14.999H26.7224V10.5578C26.7224 10.2237 26.6717 9.96141 26.5702 9.77108C26.4729 9.58074 26.3312 9.44539 26.1451 9.36502C25.9632 9.28043 25.7454 9.23813 25.4916 9.23813C25.2039 9.23813 24.9586 9.29312 24.7556 9.40309C24.5568 9.51306 24.394 9.66322 24.2671 9.85356C24.1402 10.0439 24.0471 10.2638 23.9879 10.5134C23.9287 10.7629 23.8991 11.0294 23.8991 11.3128ZM28.1563 10.9068L27.4394 11.0654C27.4394 10.6509 27.4965 10.2596 27.6107 9.89162C27.7291 9.51941 27.9004 9.19372 28.1246 8.91456C28.353 8.63116 28.6343 8.4091 28.9684 8.24837C29.3026 8.08764 29.6853 8.00728 30.1168 8.00728C30.4678 8.00728 30.7808 8.05592 31.0558 8.1532C31.3349 8.24626 31.5718 8.3943 31.7664 8.59733C31.9609 8.80035 32.109 9.06471 32.2105 9.3904C32.312 9.71186 32.3628 10.101 32.3628 10.5578V14.999H30.8274V10.5515C30.8274 10.2046 30.7766 9.93604 30.6751 9.7457C30.5778 9.55536 30.4382 9.42424 30.2564 9.35233C30.0745 9.2762 29.8567 9.23813 29.6029 9.23813C29.366 9.23813 29.1566 9.28254 28.9748 9.37137C28.7971 9.45596 28.6469 9.57651 28.5243 9.73301C28.4016 9.88528 28.3086 10.0608 28.2451 10.2596C28.1859 10.4584 28.1563 10.6741 28.1563 10.9068ZM35.5731 8.13417V14.999H34.0377V8.13417H35.5731ZM33.9362 6.3323C33.9362 6.09967 34.0124 5.90722 34.1646 5.75495C34.3211 5.59845 34.5368 5.5202 34.8118 5.5202C35.0825 5.5202 35.2961 5.59845 35.4526 5.75495C35.6091 5.90722 35.6873 6.09967 35.6873 6.3323C35.6873 6.56071 35.6091 6.75105 35.4526 6.90332C35.2961 7.05559 35.0825 7.13172 34.8118 7.13172C34.5368 7.13172 34.3211 7.05559 34.1646 6.90332C34.0124 6.75105 33.9362 6.56071 33.9362 6.3323ZM38.7645 9.59977V14.999H37.2354V8.13417H38.6756L38.7645 9.59977ZM38.4916 11.3128L37.9968 11.3065C38.001 10.82 38.0687 10.3738 38.1998 9.96776C38.3351 9.5617 38.5213 9.21275 38.7581 8.9209C38.9992 8.62905 39.2868 8.40487 39.621 8.24837C39.9551 8.08764 40.3274 8.00728 40.7376 8.00728C41.0676 8.00728 41.3658 8.0538 41.6322 8.14686C41.9029 8.23568 42.1334 8.38161 42.3238 8.58464C42.5184 8.78766 42.6664 9.05202 42.7679 9.37771C42.8694 9.69917 42.9202 10.0947 42.9202 10.5642V14.999H41.3848V10.5578C41.3848 10.2279 41.3361 9.96776 41.2389 9.77742C41.1458 9.58285 41.0083 9.44539 40.8265 9.36502C40.6488 9.28043 40.4268 9.23813 40.1603 9.23813C39.898 9.23813 39.6633 9.29312 39.456 9.40309C39.2488 9.51306 39.0732 9.66322 38.9294 9.85356C38.7898 10.0439 38.682 10.2638 38.6059 10.5134C38.5297 10.7629 38.4916 11.0294 38.4916 11.3128ZM48.3512 13.6222V10.3484C48.3512 10.1031 48.3067 9.89162 48.2179 9.71397C48.1291 9.53633 47.9937 9.39886 47.8119 9.30158C47.6342 9.20429 47.41 9.15565 47.1393 9.15565C46.8898 9.15565 46.6741 9.19795 46.4922 9.28254C46.3103 9.36714 46.1686 9.48134 46.0671 9.62515C45.9656 9.76896 45.9148 9.93181 45.9148 10.1137H44.3921C44.3921 9.84298 44.4577 9.58074 44.5888 9.32695C44.7199 9.07317 44.9103 8.84688 45.1598 8.64808C45.4094 8.44928 45.7076 8.29278 46.0544 8.17858C46.4012 8.06438 46.7904 8.00728 47.2218 8.00728C47.7378 8.00728 48.1947 8.09399 48.5922 8.26741C48.9941 8.44083 49.3092 8.70307 49.5376 9.05414C49.7702 9.40097 49.8865 9.83664 49.8865 10.3611V13.4129C49.8865 13.7259 49.9077 14.0072 49.95 14.2567C49.9965 14.502 50.0621 14.7156 50.1467 14.8975V14.999H48.5796C48.5077 14.8341 48.4506 14.6247 48.4083 14.3709C48.3702 14.1129 48.3512 13.8633 48.3512 13.6222ZM48.5732 10.8243L48.5859 11.7696H47.4883C47.2049 11.7696 46.9553 11.7971 46.7396 11.8521C46.5239 11.9029 46.3441 11.979 46.2003 12.0805C46.0565 12.182 45.9487 12.3047 45.8768 12.4485C45.8049 12.5923 45.7689 12.7552 45.7689 12.937C45.7689 13.1189 45.8112 13.286 45.8958 13.4383C45.9804 13.5863 46.103 13.7026 46.2638 13.7872C46.4287 13.8718 46.6275 13.9141 46.8602 13.9141C47.1732 13.9141 47.446 13.8507 47.6786 13.7238C47.9155 13.5926 48.1016 13.434 48.2369 13.2479C48.3723 13.0576 48.4442 12.8778 48.4527 12.7086L48.9475 13.3875C48.8968 13.5609 48.8101 13.747 48.6874 13.9458C48.5648 14.1446 48.404 14.335 48.2052 14.5168C48.0107 14.6945 47.7759 14.8404 47.501 14.9546C47.2303 15.0688 46.9173 15.1259 46.562 15.1259C46.1136 15.1259 45.7139 15.0371 45.3628 14.8594C45.0118 14.6776 44.7368 14.4344 44.538 14.1298C44.3393 13.821 44.2399 13.4721 44.2399 13.083C44.2399 12.7192 44.3075 12.3977 44.4429 12.1186C44.5825 11.8352 44.7855 11.5983 45.052 11.408C45.3227 11.2176 45.6526 11.0738 46.0417 10.9765C46.4309 10.875 46.875 10.8243 47.3741 10.8243H48.5732ZM53.0208 9.44116V14.999H51.4917V8.13417H52.951L53.0208 9.44116ZM55.1208 8.08976L55.1081 9.51095C55.0151 9.49403 54.9136 9.48134 54.8036 9.47288C54.6979 9.46442 54.5921 9.46019 54.4864 9.46019C54.2241 9.46019 53.9936 9.49826 53.7948 9.57439C53.596 9.6463 53.4289 9.75204 53.2936 9.89162C53.1625 10.027 53.061 10.1919 52.9891 10.3865C52.9171 10.5811 52.8749 10.7989 52.8622 11.04L52.5132 11.0654C52.5132 10.6339 52.5555 10.2342 52.6401 9.86624C52.7247 9.49826 52.8516 9.17468 53.0208 8.89552C53.1942 8.61636 53.4099 8.39853 53.6679 8.24203C53.9302 8.08553 54.2326 8.00728 54.5752 8.00728C54.6683 8.00728 54.7677 8.01574 54.8734 8.03266C54.9834 8.04958 55.0659 8.06861 55.1208 8.08976Z" fill="#E47A59"/>
<rect x="1" y="1" width="60.9942" height="18.9981" rx="3.99807" stroke="#E47A59" stroke-width="0.999518"/>
</svg>
