<svg width="45" height="22" viewBox="0 0 45 22" fill="none" xmlns="http://www.w3.org/2000/svg">
<path d="M11.5273 12.0501H9.12266V10.7875H11.5273C11.946 10.7875 12.2844 10.7199 12.5424 10.5845C12.8004 10.4492 12.9886 10.2631 13.1071 10.0262C13.2297 9.7851 13.2911 9.51017 13.2911 9.2014C13.2911 8.90955 13.2297 8.63673 13.1071 8.38295C12.9886 8.12493 12.8004 7.91768 12.5424 7.76118C12.2844 7.60468 11.946 7.52643 11.5273 7.52643H9.61119V15.4952H8.0187V6.25751H11.5273C12.2421 6.25751 12.8491 6.3844 13.3482 6.63818C13.8515 6.88774 14.2343 7.23457 14.4965 7.6787C14.7588 8.11859 14.8899 8.62193 14.8899 9.18871C14.8899 9.7851 14.7588 10.2969 14.4965 10.7241C14.2343 11.1513 13.8515 11.4791 13.3482 11.7075C12.8491 11.9359 12.2421 12.0501 11.5273 12.0501ZM19.9592 14.1185V10.8446C19.9592 10.5993 19.9148 10.3878 19.826 10.2102C19.7372 10.0325 19.6018 9.89507 19.4199 9.79779C19.2423 9.70051 19.0181 9.65187 18.7474 9.65187C18.4979 9.65187 18.2821 9.69416 18.1003 9.77876C17.9184 9.86335 17.7767 9.97755 17.6752 10.1214C17.5737 10.2652 17.5229 10.428 17.5229 10.6099H16.0002C16.0002 10.3392 16.0658 10.077 16.1969 9.82317C16.328 9.56939 16.5183 9.34309 16.7679 9.1443C17.0175 8.9455 17.3156 8.789 17.6625 8.6748C18.0093 8.56059 18.3985 8.50349 18.8299 8.50349C19.3459 8.50349 19.8027 8.5902 20.2003 8.76362C20.6022 8.93704 20.9173 9.19928 21.1457 9.55035C21.3783 9.89719 21.4946 10.3329 21.4946 10.8573V13.9091C21.4946 14.2221 21.5158 14.5034 21.5581 14.7529C21.6046 14.9982 21.6702 15.2118 21.7548 15.3937V15.4952H20.1876C20.1157 15.3303 20.0586 15.1209 20.0163 14.8671C19.9783 14.6091 19.9592 14.3596 19.9592 14.1185ZM20.1813 11.3205L20.194 12.2658H19.0964C18.813 12.2658 18.5634 12.2933 18.3477 12.3483C18.132 12.3991 17.9522 12.4752 17.8084 12.5767C17.6646 12.6782 17.5567 12.8009 17.4848 12.9447C17.4129 13.0885 17.377 13.2514 17.377 13.4332C17.377 13.6151 17.4193 13.7822 17.5039 13.9345C17.5885 14.0825 17.7111 14.1988 17.8719 14.2834C18.0368 14.368 18.2356 14.4103 18.4683 14.4103C18.7813 14.4103 19.0541 14.3469 19.2867 14.22C19.5236 14.0889 19.7097 13.9302 19.845 13.7441C19.9804 13.5538 20.0523 13.374 20.0607 13.2048L20.5556 13.8837C20.5049 14.0571 20.4182 14.2432 20.2955 14.442C20.1728 14.6408 20.0121 14.8312 19.8133 15.013C19.6187 15.1907 19.384 15.3366 19.1091 15.4508C18.8384 15.565 18.5254 15.6221 18.1701 15.6221C17.7217 15.6221 17.322 15.5333 16.9709 15.3557C16.6199 15.1738 16.3449 14.9306 16.1461 14.626C15.9473 14.3173 15.8479 13.9683 15.8479 13.5792C15.8479 13.2154 15.9156 12.894 16.051 12.6148C16.1905 12.3314 16.3936 12.0945 16.66 11.9042C16.9307 11.7139 17.2607 11.57 17.6498 11.4728C18.0389 11.3713 18.4831 11.3205 18.9822 11.3205H20.1813ZM24.6289 9.93737V15.4952H23.0998V8.63038H24.5591L24.6289 9.93737ZM26.7289 8.58597L26.7162 10.0072C26.6232 9.99024 26.5217 9.97755 26.4117 9.96909C26.3059 9.96064 26.2002 9.95641 26.0945 9.95641C25.8322 9.95641 25.6017 9.99447 25.4029 10.0706C25.2041 10.1425 25.037 10.2483 24.9017 10.3878C24.7706 10.5232 24.669 10.6881 24.5971 10.8827C24.5252 11.0773 24.4829 11.2951 24.4702 11.5362L24.1213 11.5616C24.1213 11.1302 24.1636 10.7304 24.2482 10.3625C24.3328 9.99447 24.4597 9.6709 24.6289 9.39174C24.8023 9.11257 25.018 8.89474 25.276 8.73824C25.5382 8.58174 25.8407 8.50349 26.1833 8.50349C26.2763 8.50349 26.3757 8.51195 26.4815 8.52887C26.5915 8.54579 26.6739 8.56482 26.7289 8.58597ZM31.1511 8.63038V9.74703H27.2809V8.63038H31.1511ZM28.3975 6.94907H29.9266V13.5982C29.9266 13.8097 29.9562 13.9725 30.0154 14.0867C30.0789 14.1967 30.1656 14.2707 30.2755 14.3088C30.3855 14.3469 30.5145 14.3659 30.6626 14.3659C30.7683 14.3659 30.8698 14.3596 30.9671 14.3469C31.0644 14.3342 31.1426 14.3215 31.2019 14.3088L31.2082 15.4762C31.0813 15.5143 30.9333 15.5481 30.7641 15.5777C30.5991 15.6073 30.4088 15.6221 30.1931 15.6221C29.842 15.6221 29.5311 15.5608 29.2604 15.4381C28.9897 15.3112 28.7782 15.1061 28.626 14.8227C28.4737 14.5393 28.3975 14.1629 28.3975 13.6934V6.94907ZM34.3234 14.7466L36.1887 8.63038H37.8256L35.0721 16.5421C35.0086 16.7113 34.9261 16.8953 34.8246 17.0941C34.7231 17.2929 34.5899 17.4811 34.4249 17.6587C34.2642 17.8406 34.0633 17.9866 33.8222 18.0965C33.5811 18.2107 33.2892 18.2678 32.9466 18.2678C32.8113 18.2678 32.6801 18.2551 32.5533 18.2298C32.4306 18.2086 32.3143 18.1853 32.2043 18.16L32.198 16.9926C32.2403 16.9968 32.291 17.001 32.3502 17.0053C32.4137 17.0095 32.4644 17.0116 32.5025 17.0116C32.7563 17.0116 32.9678 16.9799 33.137 16.9164C33.3061 16.8572 33.4436 16.7599 33.5494 16.6246C33.6593 16.4892 33.7524 16.3073 33.8285 16.0789L34.3234 14.7466ZM33.2702 8.63038L34.9008 13.7695L35.1736 15.381L34.114 15.6539L31.6206 8.63038H33.2702Z" fill="#58B9B8"/>
<rect x="1" y="1" width="42.9793" height="19.9904" rx="3.99807" stroke="#58B9B8" stroke-width="0.999518"/>
</svg>
