<svg width="62" height="21" viewBox="0 0 62 21" fill="none" xmlns="http://www.w3.org/2000/svg">
<path d="M10.2518 12.9243L12.0918 5.76129H13.0562L12.9483 7.60757L10.9815 14.999H9.97903L10.2518 12.9243ZM8.87507 5.76129L10.3661 12.8672L10.4993 14.999H9.4334L7.29527 5.76129H8.87507ZM15.1435 12.8482L16.6155 5.76129H18.2016L16.0635 14.999H14.9976L15.1435 12.8482ZM13.4305 5.76129L15.2514 12.9434L15.5179 14.999H14.5154L12.5803 7.60757L12.4788 5.76129H13.4305ZM22.0528 15.1259C21.5452 15.1259 21.0863 15.0434 20.676 14.8785C20.27 14.7093 19.9231 14.4745 19.6355 14.1742C19.3521 13.8739 19.1343 13.5207 18.982 13.1147C18.8297 12.7086 18.7536 12.2708 18.7536 11.8013V11.5476C18.7536 11.0104 18.8319 10.524 18.9884 10.0883C19.1449 9.65264 19.3627 9.28043 19.6419 8.97166C19.921 8.65866 20.2509 8.41968 20.6316 8.25472C21.0123 8.08976 21.4247 8.00728 21.8688 8.00728C22.3595 8.00728 22.7888 8.08976 23.1568 8.25472C23.5247 8.41968 23.8293 8.65231 24.0704 8.95262C24.3157 9.2487 24.4976 9.60189 24.616 10.0122C24.7387 10.4225 24.8 10.875 24.8 11.3699V12.0234H19.4959V10.9258H23.29V10.8052C23.2815 10.5303 23.2265 10.2723 23.125 10.0312C23.0278 9.79011 22.8776 9.59554 22.6746 9.4475C22.4715 9.29946 22.2008 9.22544 21.8625 9.22544C21.6087 9.22544 21.3824 9.28043 21.1836 9.3904C20.989 9.49614 20.8262 9.65053 20.6951 9.85356C20.5639 10.0566 20.4624 10.3019 20.3905 10.5895C20.3228 10.8729 20.289 11.1923 20.289 11.5476V11.8013C20.289 12.1017 20.3292 12.3808 20.4095 12.6388C20.4941 12.8926 20.6168 13.1147 20.7775 13.305C20.9383 13.4954 21.1328 13.6455 21.3612 13.7555C21.5896 13.8612 21.8498 13.9141 22.1416 13.9141C22.5096 13.9141 22.8374 13.8401 23.125 13.692C23.4127 13.544 23.6622 13.3346 23.8737 13.0639L24.6795 13.8443C24.5314 14.06 24.339 14.2673 24.1021 14.4661C23.8652 14.6606 23.5755 14.8193 23.2329 14.9419C22.8945 15.0646 22.5011 15.1259 22.0528 15.1259ZM25.9991 5.25372H27.5282V13.5334L27.3823 14.999H25.9991V5.25372ZM32.0075 11.5032V11.6364C32.0075 12.144 31.9504 12.6113 31.8362 13.0385C31.7262 13.4615 31.557 13.8295 31.3286 14.1425C31.1044 14.4555 30.8253 14.6987 30.4911 14.8721C30.1612 15.0413 29.7784 15.1259 29.3427 15.1259C28.9155 15.1259 28.5433 15.0456 28.2261 14.8848C27.9089 14.7241 27.6424 14.4957 27.4267 14.1996C27.2152 13.9035 27.0439 13.5503 26.9128 13.1401C26.7816 12.7298 26.6886 12.2772 26.6336 11.7823V11.3572C26.6886 10.8581 26.7816 10.4055 26.9128 9.99948C27.0439 9.5892 27.2152 9.23601 27.4267 8.93993C27.6424 8.63962 27.9067 8.4091 28.2197 8.24837C28.537 8.08764 28.9071 8.00728 29.3301 8.00728C29.7699 8.00728 30.157 8.09187 30.4911 8.26106C30.8295 8.43025 31.1108 8.67135 31.3349 8.98435C31.5591 9.29312 31.7262 9.6611 31.8362 10.0883C31.9504 10.5155 32.0075 10.9871 32.0075 11.5032ZM30.4784 11.6364V11.5032C30.4784 11.1944 30.453 10.9046 30.4023 10.6339C30.3515 10.359 30.2669 10.1179 30.1485 9.91066C30.0343 9.7034 29.8778 9.54056 29.679 9.42212C29.4844 9.29946 29.2412 9.23813 28.9494 9.23813C28.6787 9.23813 28.446 9.28466 28.2515 9.37771C28.0569 9.47076 27.8941 9.59766 27.7629 9.75839C27.6318 9.91912 27.5282 10.1052 27.452 10.3167C27.3801 10.5282 27.3315 10.7566 27.3061 11.0019V12.1503C27.3442 12.4675 27.4246 12.7594 27.5472 13.0259C27.6741 13.2881 27.8518 13.4996 28.0802 13.6603C28.3086 13.8168 28.6025 13.8951 28.9621 13.8951C29.2455 13.8951 29.4844 13.838 29.679 13.7238C29.8736 13.6096 30.028 13.4509 30.1422 13.2479C30.2606 13.0407 30.3452 12.7996 30.3959 12.5246C30.4509 12.2497 30.4784 11.9536 30.4784 11.6364ZM34.9387 8.13417V14.999H33.4033V8.13417H34.9387ZM33.3018 6.3323C33.3018 6.09967 33.3779 5.90722 33.5302 5.75495C33.6867 5.59845 33.9024 5.5202 34.1773 5.5202C34.448 5.5202 34.6616 5.59845 34.8181 5.75495C34.9746 5.90722 35.0529 6.09967 35.0529 6.3323C35.0529 6.56071 34.9746 6.75105 34.8181 6.90332C34.6616 7.05559 34.448 7.13172 34.1773 7.13172C33.9024 7.13172 33.6867 7.05559 33.5302 6.90332C33.3779 6.75105 33.3018 6.56071 33.3018 6.3323ZM38.13 9.59977V14.999H36.601V8.13417H38.0412L38.13 9.59977ZM37.8572 11.3128L37.3623 11.3065C37.3665 10.82 37.4342 10.3738 37.5653 9.96776C37.7007 9.5617 37.8868 9.21275 38.1237 8.9209C38.3648 8.62905 38.6524 8.40487 38.9865 8.24837C39.3207 8.08764 39.6929 8.00728 40.1032 8.00728C40.4331 8.00728 40.7313 8.0538 40.9978 8.14686C41.2685 8.23568 41.499 8.38161 41.6893 8.58464C41.8839 8.78766 42.0319 9.05202 42.1334 9.37771C42.235 9.69917 42.2857 10.0947 42.2857 10.5642V14.999H40.7503V10.5578C40.7503 10.2279 40.7017 9.96776 40.6044 9.77742C40.5113 9.58285 40.3739 9.44539 40.192 9.36502C40.0144 9.28043 39.7923 9.23813 39.5258 9.23813C39.2636 9.23813 39.0288 9.29312 38.8216 9.40309C38.6143 9.51306 38.4388 9.66322 38.295 9.85356C38.1554 10.0439 38.0475 10.2638 37.9714 10.5134C37.8953 10.7629 37.8572 11.0294 37.8572 11.3128ZM47.7167 13.6222V10.3484C47.7167 10.1031 47.6723 9.89162 47.5835 9.71397C47.4946 9.53633 47.3593 9.39886 47.1774 9.30158C46.9998 9.20429 46.7756 9.15565 46.5049 9.15565C46.2553 9.15565 46.0396 9.19795 45.8577 9.28254C45.6758 9.36714 45.5342 9.48134 45.4326 9.62515C45.3311 9.76896 45.2804 9.93181 45.2804 10.1137H43.7577C43.7577 9.84298 43.8232 9.58074 43.9543 9.32695C44.0855 9.07317 44.2758 8.84688 44.5254 8.64808C44.7749 8.44928 45.0731 8.29278 45.4199 8.17858C45.7668 8.06438 46.1559 8.00728 46.5874 8.00728C47.1034 8.00728 47.5602 8.09399 47.9578 8.26741C48.3596 8.44083 48.6747 8.70307 48.9031 9.05414C49.1358 9.40097 49.2521 9.83664 49.2521 10.3611V13.4129C49.2521 13.7259 49.2732 14.0072 49.3155 14.2567C49.3621 14.502 49.4276 14.7156 49.5122 14.8975V14.999H47.9451C47.8732 14.8341 47.8161 14.6247 47.7738 14.3709C47.7357 14.1129 47.7167 13.8633 47.7167 13.6222ZM47.9388 10.8243L47.9514 11.7696H46.8538C46.5704 11.7696 46.3209 11.7971 46.1052 11.8521C45.8894 11.9029 45.7097 11.979 45.5659 12.0805C45.4221 12.182 45.3142 12.3047 45.2423 12.4485C45.1704 12.5923 45.1344 12.7552 45.1344 12.937C45.1344 13.1189 45.1767 13.286 45.2613 13.4383C45.3459 13.5863 45.4686 13.7026 45.6293 13.7872C45.7943 13.8718 45.9931 13.9141 46.2257 13.9141C46.5387 13.9141 46.8115 13.8507 47.0442 13.7238C47.281 13.5926 47.4671 13.434 47.6025 13.2479C47.7378 13.0576 47.8097 12.8778 47.8182 12.7086L48.3131 13.3875C48.2623 13.5609 48.1756 13.747 48.053 13.9458C47.9303 14.1446 47.7696 14.335 47.5708 14.5168C47.3762 14.6945 47.1414 14.8404 46.8665 14.9546C46.5958 15.0688 46.2828 15.1259 45.9275 15.1259C45.4792 15.1259 45.0795 15.0371 44.7284 14.8594C44.3773 14.6776 44.1024 14.4344 43.9036 14.1298C43.7048 13.821 43.6054 13.4721 43.6054 13.083C43.6054 12.7192 43.6731 12.3977 43.8084 12.1186C43.948 11.8352 44.151 11.5983 44.4175 11.408C44.6882 11.2176 45.0181 11.0738 45.4073 10.9765C45.7964 10.875 46.2405 10.8243 46.7396 10.8243H47.9388ZM52.3863 9.44116V14.999H50.8573V8.13417H52.3165L52.3863 9.44116ZM54.4864 8.08976L54.4737 9.51095C54.3806 9.49403 54.2791 9.48134 54.1691 9.47288C54.0634 9.46442 53.9577 9.46019 53.8519 9.46019C53.5897 9.46019 53.3592 9.49826 53.1604 9.57439C52.9616 9.6463 52.7945 9.75204 52.6591 9.89162C52.528 10.027 52.4265 10.1919 52.3546 10.3865C52.2827 10.5811 52.2404 10.7989 52.2277 11.04L51.8787 11.0654C51.8787 10.6339 51.921 10.2342 52.0056 9.86624C52.0902 9.49826 52.2171 9.17468 52.3863 8.89552C52.5597 8.61636 52.7755 8.39853 53.0335 8.24203C53.2957 8.08553 53.5981 8.00728 53.9407 8.00728C54.0338 8.00728 54.1332 8.01574 54.2389 8.03266C54.3489 8.04958 54.4314 8.06861 54.4864 8.08976Z" fill="#82AD84"/>
<rect x="1" y="1" width="59.9942" height="18.9981" rx="3.99807" stroke="#82AD84" stroke-width="0.999518"/>
</svg>
