<svg width="86" height="22" viewBox="0 0 86 22" fill="none" xmlns="http://www.w3.org/2000/svg">
<path d="M13.7231 12.4879H15.3093C15.2585 13.0928 15.0893 13.632 14.8017 14.1058C14.5141 14.5753 14.1101 14.9454 13.5899 15.2161C13.0696 15.4868 12.4373 15.6221 11.6928 15.6221C11.1218 15.6221 10.6079 15.5206 10.1511 15.3176C9.69428 15.1103 9.30303 14.8185 8.97734 14.442C8.65165 14.0614 8.4021 13.6024 8.22868 13.0653C8.05949 12.5281 7.9749 11.9275 7.9749 11.2634V10.4957C7.9749 9.83163 8.06161 9.23101 8.23502 8.69383C8.41267 8.15666 8.66646 7.69773 8.99638 7.31705C9.3263 6.93215 9.72178 6.63818 10.1828 6.43515C10.6481 6.23213 11.1705 6.13061 11.7499 6.13061C12.4859 6.13061 13.1077 6.26597 13.6152 6.53667C14.1228 6.80737 14.5162 7.1817 14.7953 7.65966C15.0787 8.13762 15.2521 8.68537 15.3156 9.30291H13.7294C13.6871 8.90532 13.5941 8.56482 13.4503 8.28143C13.3107 7.99804 13.1034 7.78232 12.8285 7.63428C12.5536 7.48201 12.1941 7.40588 11.7499 7.40588C11.3862 7.40588 11.0689 7.47355 10.7982 7.60891C10.5275 7.74426 10.3012 7.94305 10.1194 8.2053C9.93749 8.46754 9.80003 8.79112 9.70697 9.17602C9.61815 9.5567 9.57373 9.99236 9.57373 10.483V11.2634C9.57373 11.7287 9.61392 12.1516 9.69428 12.5323C9.77888 12.9088 9.90577 13.2323 10.075 13.503C10.2484 13.7737 10.4683 13.9831 10.7348 14.1312C11.0013 14.2792 11.3206 14.3532 11.6928 14.3532C12.1454 14.3532 12.5113 14.2813 12.7904 14.1375C13.0738 13.9937 13.2874 13.7843 13.4312 13.5094C13.5793 13.2302 13.6766 12.8897 13.7231 12.4879ZM16.3117 12.1389V11.993C16.3117 11.4981 16.3836 11.0392 16.5274 10.6162C16.6712 10.189 16.8785 9.81894 17.1492 9.50594C17.4241 9.18871 17.7583 8.94339 18.1516 8.76997C18.5492 8.59232 18.9976 8.50349 19.4967 8.50349C20 8.50349 20.4484 8.59232 20.8417 8.76997C21.2393 8.94339 21.5756 9.18871 21.8505 9.50594C22.1255 9.81894 22.3348 10.189 22.4786 10.6162C22.6225 11.0392 22.6944 11.4981 22.6944 11.993V12.1389C22.6944 12.6338 22.6225 13.0928 22.4786 13.5157C22.3348 13.9387 22.1255 14.3088 21.8505 14.626C21.5756 14.939 21.2414 15.1844 20.8481 15.362C20.4547 15.5354 20.0085 15.6221 19.5094 15.6221C19.006 15.6221 18.5556 15.5354 18.158 15.362C17.7646 15.1844 17.4305 14.939 17.1555 14.626C16.8806 14.3088 16.6712 13.9387 16.5274 13.5157C16.3836 13.0928 16.3117 12.6338 16.3117 12.1389ZM17.8407 11.993V12.1389C17.8407 12.4477 17.8725 12.7396 17.9359 13.0145C17.9994 13.2894 18.0988 13.5305 18.2341 13.7378C18.3695 13.945 18.5429 14.1079 18.7544 14.2263C18.9659 14.3448 19.2175 14.404 19.5094 14.404C19.7928 14.404 20.0381 14.3448 20.2453 14.2263C20.4568 14.1079 20.6303 13.945 20.7656 13.7378C20.901 13.5305 21.0004 13.2894 21.0638 13.0145C21.1315 12.7396 21.1653 12.4477 21.1653 12.1389V11.993C21.1653 11.6885 21.1315 11.4009 21.0638 11.1302C21.0004 10.8552 20.8988 10.612 20.7593 10.4005C20.6239 10.189 20.4505 10.0241 20.239 9.90565C20.0317 9.78299 19.7843 9.72166 19.4967 9.72166C19.2091 9.72166 18.9595 9.78299 18.748 9.90565C18.5408 10.0241 18.3695 10.189 18.2341 10.4005C18.0988 10.612 17.9994 10.8552 17.9359 11.1302C17.8725 11.4009 17.8407 11.6885 17.8407 11.993ZM25.505 10.0262V15.4952H23.976V8.63039H25.4162L25.505 10.0262ZM25.2576 11.809L24.7373 11.8027C24.7373 11.329 24.7965 10.8912 24.915 10.4894C25.0334 10.0875 25.2068 9.73858 25.4352 9.44249C25.6636 9.14218 25.947 8.91166 26.2854 8.75093C26.628 8.58597 27.0235 8.50349 27.4718 8.50349C27.7848 8.50349 28.0703 8.55002 28.3284 8.64307C28.5906 8.7319 28.8169 8.8736 29.0072 9.06816C29.2018 9.26273 29.3498 9.51228 29.4514 9.81683C29.5571 10.1214 29.61 10.4894 29.61 10.9208V15.4952H28.0809V11.054C28.0809 10.7199 28.0302 10.4576 27.9287 10.2673C27.8314 10.077 27.6897 9.9416 27.5036 9.86124C27.3217 9.77664 27.1039 9.73435 26.8501 9.73435C26.5625 9.73435 26.3171 9.78933 26.1141 9.8993C25.9153 10.0093 25.7525 10.1594 25.6256 10.3498C25.4987 10.5401 25.4056 10.7601 25.3464 11.0096C25.2872 11.2592 25.2576 11.5256 25.2576 11.809ZM29.5148 11.403L28.7979 11.5616C28.7979 11.1471 28.855 10.7558 28.9692 10.3878C29.0876 10.0156 29.2589 9.68993 29.4831 9.41077C29.7115 9.12738 29.9928 8.90532 30.3269 8.74459C30.6611 8.58386 31.0439 8.50349 31.4753 8.50349C31.8264 8.50349 32.1394 8.55214 32.4143 8.64942C32.6934 8.74247 32.9303 8.89051 33.1249 9.09354C33.3194 9.29657 33.4675 9.56093 33.569 9.88662C33.6705 10.2081 33.7213 10.5972 33.7213 11.054V15.4952H32.1859V11.0477C32.1859 10.7008 32.1351 10.4323 32.0336 10.2419C31.9363 10.0516 31.7967 9.92045 31.6149 9.84855C31.433 9.77241 31.2152 9.73435 30.9614 9.73435C30.7245 9.73435 30.5151 9.77876 30.3333 9.86758C30.1556 9.95218 30.0055 10.0727 29.8828 10.2292C29.7601 10.3815 29.6671 10.557 29.6036 10.7558C29.5444 10.9546 29.5148 11.1703 29.5148 11.403ZM36.8301 9.95006V18.1346H35.3011V8.63039H36.7096L36.8301 9.95006ZM41.3031 11.9994V12.1326C41.3031 12.6317 41.2438 13.0949 41.1254 13.5221C41.0112 13.945 40.8399 14.3151 40.6115 14.6324C40.3873 14.9454 40.1103 15.1886 39.7804 15.362C39.4504 15.5354 39.0698 15.6221 38.6383 15.6221C38.2111 15.6221 37.8368 15.5439 37.5153 15.3874C37.1981 15.2267 36.9295 15.0004 36.7096 14.7085C36.4896 14.4167 36.312 14.074 36.1766 13.6807C36.0455 13.2831 35.9525 12.8474 35.8975 12.3737V11.8598C35.9525 11.3564 36.0455 10.8996 36.1766 10.4894C36.312 10.0791 36.4896 9.72589 36.7096 9.4298C36.9295 9.13372 37.1981 8.90532 37.5153 8.74459C37.8326 8.58386 38.2027 8.50349 38.6256 8.50349C39.0571 8.50349 39.4399 8.58809 39.774 8.75728C40.1082 8.92224 40.3894 9.1591 40.6178 9.46787C40.8463 9.77241 41.0176 10.1404 41.1318 10.5718C41.246 10.999 41.3031 11.4749 41.3031 11.9994ZM39.774 12.1326V11.9994C39.774 11.6821 39.7444 11.3882 39.6852 11.1175C39.626 10.8425 39.5329 10.6014 39.406 10.3942C39.2791 10.1869 39.1163 10.0262 38.9175 9.91199C38.7229 9.79356 38.4882 9.73435 38.2132 9.73435C37.9425 9.73435 37.7099 9.78087 37.5153 9.87393C37.3208 9.96275 37.1579 10.0875 37.0268 10.2483C36.8957 10.409 36.7942 10.5972 36.7223 10.8129C36.6504 11.0244 36.5996 11.2549 36.57 11.5045V12.7353C36.6208 13.0399 36.7075 13.319 36.8301 13.5728C36.9528 13.8266 37.1262 14.0296 37.3504 14.1819C37.5788 14.3299 37.8706 14.404 38.2259 14.404C38.5009 14.404 38.7356 14.3448 38.9302 14.2263C39.1248 14.1079 39.2834 13.945 39.406 13.7378C39.5329 13.5263 39.626 13.2831 39.6852 13.0082C39.7444 12.7332 39.774 12.4414 39.774 12.1326ZM45.6301 15.6221C45.1225 15.6221 44.6636 15.5397 44.2533 15.3747C43.8472 15.2055 43.5004 14.9708 43.2128 14.6704C42.9294 14.3701 42.7116 14.0169 42.5593 13.6109C42.407 13.2048 42.3309 12.7671 42.3309 12.2976V12.0438C42.3309 11.5066 42.4091 11.0202 42.5656 10.5845C42.7221 10.1489 42.94 9.77664 43.2191 9.46787C43.4983 9.15487 43.8282 8.91589 44.2089 8.75093C44.5896 8.58597 45.002 8.50349 45.4461 8.50349C45.9367 8.50349 46.3661 8.58597 46.734 8.75093C47.102 8.91589 47.4066 9.14853 47.6477 9.44884C47.893 9.74492 48.0749 10.0981 48.1933 10.5084C48.316 10.9187 48.3773 11.3713 48.3773 11.8661V12.5196H43.0732V11.422H46.8673V11.3015C46.8588 11.0265 46.8038 10.7685 46.7023 10.5274C46.605 10.2863 46.4549 10.0918 46.2518 9.94372C46.0488 9.79568 45.7781 9.72166 45.4397 9.72166C45.186 9.72166 44.9597 9.77664 44.7609 9.88662C44.5663 9.99236 44.4035 10.1467 44.2723 10.3498C44.1412 10.5528 44.0397 10.7981 43.9678 11.0857C43.9001 11.3691 43.8663 11.6885 43.8663 12.0438V12.2976C43.8663 12.5979 43.9065 12.877 43.9868 13.135C44.0714 13.3888 44.1941 13.6109 44.3548 13.8012C44.5155 13.9916 44.7101 14.1417 44.9385 14.2517C45.1669 14.3574 45.4271 14.4103 45.7189 14.4103C46.0869 14.4103 46.4147 14.3363 46.7023 14.1883C46.9899 14.0402 47.2395 13.8308 47.451 13.5601L48.2567 14.3405C48.1087 14.5562 47.9162 14.7635 47.6794 14.9623C47.4425 15.1569 47.1528 15.3155 46.8102 15.4381C46.4718 15.5608 46.0784 15.6221 45.6301 15.6221ZM52.717 8.63039V9.74703H48.8468V8.63039H52.717ZM49.9634 6.94907H51.4925V13.5982C51.4925 13.8097 51.5221 13.9725 51.5813 14.0867C51.6448 14.1967 51.7315 14.2707 51.8414 14.3088C51.9514 14.3469 52.0804 14.3659 52.2285 14.3659C52.3342 14.3659 52.4357 14.3596 52.533 14.3469C52.6303 14.3342 52.7085 14.3215 52.7678 14.3088L52.7741 15.4762C52.6472 15.5143 52.4992 15.5481 52.33 15.5777C52.165 15.6073 51.9747 15.6221 51.759 15.6221C51.4079 15.6221 51.097 15.5608 50.8263 15.4381C50.5556 15.3112 50.3441 15.1061 50.1918 14.8227C50.0396 14.5393 49.9634 14.1629 49.9634 13.6934V6.94907ZM55.534 8.63039V15.4952H53.9986V8.63039H55.534ZM53.8971 6.82852C53.8971 6.59588 53.9732 6.40343 54.1255 6.25116C54.282 6.09466 54.4977 6.01641 54.7726 6.01641C55.0433 6.01641 55.2569 6.09466 55.4134 6.25116C55.5699 6.40343 55.6482 6.59588 55.6482 6.82852C55.6482 7.05693 55.5699 7.24726 55.4134 7.39953C55.2569 7.5518 55.0433 7.62794 54.7726 7.62794C54.4977 7.62794 54.282 7.5518 54.1255 7.39953C53.9732 7.24726 53.8971 7.05693 53.8971 6.82852ZM60.3559 8.63039V9.74703H56.4857V8.63039H60.3559ZM57.6023 6.94907H59.1314V13.5982C59.1314 13.8097 59.161 13.9725 59.2202 14.0867C59.2837 14.1967 59.3704 14.2707 59.4803 14.3088C59.5903 14.3469 59.7193 14.3659 59.8674 14.3659C59.9731 14.3659 60.0746 14.3596 60.1719 14.3469C60.2692 14.3342 60.3474 14.3215 60.4066 14.3088L60.413 15.4762C60.2861 15.5143 60.1381 15.5481 59.9689 15.5777C59.8039 15.6073 59.6136 15.6221 59.3979 15.6221C59.0468 15.6221 58.7359 15.5608 58.4652 15.4381C58.1945 15.3112 57.983 15.1061 57.8307 14.8227C57.6785 14.5393 57.6023 14.1629 57.6023 13.6934V6.94907ZM63.1729 8.63039V15.4952H61.6375V8.63039H63.1729ZM61.536 6.82852C61.536 6.59588 61.6121 6.40343 61.7644 6.25116C61.9209 6.09466 62.1366 6.01641 62.4115 6.01641C62.6822 6.01641 62.8958 6.09466 63.0523 6.25116C63.2088 6.40343 63.2871 6.59588 63.2871 6.82852C63.2871 7.05693 63.2088 7.24726 63.0523 7.39953C62.8958 7.5518 62.6822 7.62794 62.4115 7.62794C62.1366 7.62794 61.9209 7.5518 61.7644 7.39953C61.6121 7.24726 61.536 7.05693 61.536 6.82852ZM64.556 12.1389V11.993C64.556 11.4981 64.6279 11.0392 64.7717 10.6162C64.9155 10.189 65.1228 9.81894 65.3935 9.50594C65.6684 9.18871 66.0026 8.94339 66.3959 8.76997C66.7935 8.59232 67.2419 8.50349 67.741 8.50349C68.2443 8.50349 68.6927 8.59232 69.0861 8.76997C69.4836 8.94339 69.8199 9.18871 70.0948 9.50594C70.3698 9.81894 70.5792 10.189 70.723 10.6162C70.8668 11.0392 70.9387 11.4981 70.9387 11.993V12.1389C70.9387 12.6338 70.8668 13.0928 70.723 13.5157C70.5792 13.9387 70.3698 14.3088 70.0948 14.626C69.8199 14.939 69.4858 15.1844 69.0924 15.362C68.699 15.5354 68.2528 15.6221 67.7537 15.6221C67.2504 15.6221 66.7999 15.5354 66.4023 15.362C66.0089 15.1844 65.6748 14.939 65.3998 14.626C65.1249 14.3088 64.9155 13.9387 64.7717 13.5157C64.6279 13.0928 64.556 12.6338 64.556 12.1389ZM66.0851 11.993V12.1389C66.0851 12.4477 66.1168 12.7396 66.1802 13.0145C66.2437 13.2894 66.3431 13.5305 66.4784 13.7378C66.6138 13.945 66.7872 14.1079 66.9987 14.2263C67.2102 14.3448 67.4618 14.404 67.7537 14.404C68.0371 14.404 68.2824 14.3448 68.4897 14.2263C68.7011 14.1079 68.8746 13.945 69.0099 13.7378C69.1453 13.5305 69.2447 13.2894 69.3081 13.0145C69.3758 12.7396 69.4096 12.4477 69.4096 12.1389V11.993C69.4096 11.6885 69.3758 11.4009 69.3081 11.1302C69.2447 10.8552 69.1432 10.612 69.0036 10.4005C68.8682 10.189 68.6948 10.0241 68.4833 9.90565C68.2761 9.78299 68.0286 9.72166 67.741 9.72166C67.4534 9.72166 67.2038 9.78299 66.9923 9.90565C66.7851 10.0241 66.6138 10.189 66.4784 10.4005C66.3431 10.612 66.2437 10.8552 66.1802 11.1302C66.1168 11.4009 66.0851 11.6885 66.0851 11.993ZM73.7366 10.096V15.4952H72.2076V8.63039H73.6478L73.7366 10.096ZM73.4638 11.809L72.9689 11.8027C72.9732 11.3163 73.0408 10.87 73.172 10.464C73.3073 10.0579 73.4934 9.70897 73.7303 9.41712C73.9714 9.12526 74.259 8.90109 74.5932 8.74459C74.9273 8.58386 75.2995 8.50349 75.7098 8.50349C76.0397 8.50349 76.3379 8.55002 76.6044 8.64307C76.8751 8.7319 77.1056 8.87782 77.296 9.08085C77.4905 9.28388 77.6386 9.54824 77.7401 9.87393C77.8416 10.1954 77.8923 10.5909 77.8923 11.0604V15.4952H76.357V11.054C76.357 10.7241 76.3083 10.464 76.211 10.2736C76.118 10.0791 75.9805 9.9416 75.7986 9.86124C75.621 9.77664 75.3989 9.73435 75.1324 9.73435C74.8702 9.73435 74.6355 9.78933 74.4282 9.8993C74.2209 10.0093 74.0454 10.1594 73.9016 10.3498C73.762 10.5401 73.6542 10.7601 73.578 11.0096C73.5019 11.2592 73.4638 11.5256 73.4638 11.809Z" fill="#C18CF5"/>
<rect x="1" y="1" width="83.9942" height="19.9904" rx="3.99807" stroke="#C18CF5" stroke-width="0.999518"/>
</svg>
