<svg width="24" height="24" viewBox="0 0 24 24" fill="none" xmlns="http://www.w3.org/2000/svg">
<path d="M19.5 14.7285C20.8201 15.6995 22 18.1441 22 19.6503C22 20.1196 21.6522 20.5 21.2232 20.5H20.75M15.75 10.7487C16.604 10.2624 17.1786 9.35352 17.1786 8.3125C17.1786 7.27148 16.604 6.36256 15.75 5.87626M2.77684 20.5H16.4613C16.8903 20.5 17.2381 20.1196 17.2381 19.6503C17.2381 16.7007 14.7347 14.3095 9.61905 14.3095C4.5034 14.3095 2 16.7007 2 19.6503C2 20.1196 2.3478 20.5 2.77684 20.5ZM12.4762 8.3125C12.4762 9.8658 11.197 11.125 9.61905 11.125C8.04109 11.125 6.7619 9.8658 6.7619 8.3125C6.7619 6.7592 8.04109 5.5 9.61905 5.5C11.197 5.5 12.4762 6.7592 12.4762 8.3125Z" stroke="#F8F8F8" stroke-linecap="round"/>
</svg>
