<svg width="64" height="108" viewBox="0 0 64 108" fill="none" xmlns="http://www.w3.org/2000/svg">
<mask id="path-2-inside-1_200_295" fill="white">
<path fill-rule="evenodd" clip-rule="evenodd" d="M32.0207 26.0158L32.9931 25.0434C34.9458 23.0908 38.1116 23.0908 40.0642 25.0434L40.5061 25.4853C42.4588 27.438 42.4588 30.6038 40.5061 32.5564L32.3744 40.6881C32.2485 40.814 32.0722 40.8587 31.9105 40.8223C31.8212 40.8023 31.7364 40.7575 31.667 40.6881L23.5353 32.5563C21.5826 30.6037 21.5826 27.4379 23.5353 25.4853L23.9772 25.0433C25.9298 23.0907 29.0957 23.0907 31.0483 25.0433L32.0207 26.0158Z"/>
</mask>
<path d="M32.0207 26.0158L31.3136 26.7229L32.0207 27.43L32.7278 26.7229L32.0207 26.0158ZM32.9931 25.0434L32.286 24.3363V24.3363L32.9931 25.0434ZM40.0642 25.0434L39.3571 25.7505L40.0642 25.0434ZM40.5061 25.4853L41.2133 24.7782L40.5061 25.4853ZM40.5061 32.5564L39.799 31.8493L40.5061 32.5564ZM32.3744 40.6881L33.0815 41.3952L33.0815 41.3952L32.3744 40.6881ZM31.9105 40.8223L32.1303 39.8468L32.1297 39.8466L31.9105 40.8223ZM31.667 40.6881L32.3741 39.981L31.667 40.6881ZM23.5353 32.5563L22.8282 33.2634H22.8282L23.5353 32.5563ZM23.5353 25.4853L22.8282 24.7782L23.5353 25.4853ZM23.9772 25.0433L23.2701 24.3362L23.9772 25.0433ZM31.0483 25.0433L31.7554 24.3362V24.3362L31.0483 25.0433ZM32.7278 26.7229L33.7002 25.7505L32.286 24.3363L31.3136 25.3087L32.7278 26.7229ZM33.7002 25.7505C35.2623 24.1884 37.795 24.1884 39.3571 25.7505L40.7713 24.3363C38.4282 21.9931 34.6292 21.9931 32.286 24.3363L33.7002 25.7505ZM39.3571 25.7505L39.799 26.1924L41.2133 24.7782L40.7713 24.3363L39.3571 25.7505ZM39.799 26.1924C41.3611 27.7545 41.3611 30.2872 39.799 31.8493L41.2133 33.2635C43.5564 30.9204 43.5564 27.1214 41.2133 24.7782L39.799 26.1924ZM39.799 31.8493L31.6673 39.981L33.0815 41.3952L41.2133 33.2635L39.799 31.8493ZM31.6673 39.981C31.794 39.8544 31.9716 39.811 32.1303 39.8468L31.6906 41.7978C32.1728 41.9065 32.7031 41.7737 33.0815 41.3952L31.6673 39.981ZM32.1297 39.8466C32.2198 39.8669 32.3057 39.9126 32.3741 39.981L30.9599 41.3952C31.1672 41.6024 31.4227 41.7377 31.6913 41.798L32.1297 39.8466ZM32.3741 39.981L24.2424 31.8492L22.8282 33.2634L30.9599 41.3952L32.3741 39.981ZM24.2424 31.8492C22.6803 30.2871 22.6803 27.7545 24.2424 26.1924L22.8282 24.7782C20.485 27.1213 20.485 30.9203 22.8282 33.2634L24.2424 31.8492ZM24.2424 26.1924L24.6843 25.7504L23.2701 24.3362L22.8282 24.7782L24.2424 26.1924ZM24.6843 25.7504C26.2464 24.1883 28.7791 24.1883 30.3412 25.7504L31.7554 24.3362C29.4122 21.9931 25.6132 21.9931 23.2701 24.3362L24.6843 25.7504ZM30.3412 25.7504L31.3136 26.7229L32.7278 25.3087L31.7554 24.3362L30.3412 25.7504Z" fill="#F8F8F8" mask="url(#path-2-inside-1_200_295)"/>
<g clip-path="url(#clip0_200_295)">
<mask id="mask0_200_295" style="mask-type:alpha" maskUnits="userSpaceOnUse" x="20" y="64" width="24" height="24">
<rect x="20" y="64" width="24" height="24" fill="#D9D9D9"/>
</mask>
<g mask="url(#mask0_200_295)">
<mask id="path-5-inside-2_200_295" fill="white">
<path fill-rule="evenodd" clip-rule="evenodd" d="M23.5353 76.5563L32.0206 85.0416L32.0207 85.0415L32.0209 85.0416L40.5061 76.5563C42.4588 74.6037 42.4588 71.4379 40.5061 69.4853L40.0642 69.0433C38.1116 67.0907 34.9457 67.0907 32.9931 69.0433L32.0207 70.0157L31.0483 69.0433C29.0957 67.0907 25.9299 67.0907 23.9772 69.0433L23.5353 69.4852C21.5827 71.4378 21.5827 74.6037 23.5353 76.5563Z"/>
</mask>
<path fill-rule="evenodd" clip-rule="evenodd" d="M23.5353 76.5563L32.0206 85.0416L32.0207 85.0415L32.0209 85.0416L40.5061 76.5563C42.4588 74.6037 42.4588 71.4379 40.5061 69.4853L40.0642 69.0433C38.1116 67.0907 34.9457 67.0907 32.9931 69.0433L32.0207 70.0157L31.0483 69.0433C29.0957 67.0907 25.9299 67.0907 23.9772 69.0433L23.5353 69.4852C21.5827 71.4378 21.5827 74.6037 23.5353 76.5563Z" fill="#F8F8F8"/>
<path d="M32.0206 85.0416L31.3135 85.7487L32.0206 86.4558L32.7277 85.7487L32.0206 85.0416ZM32.0207 85.0415L32.7278 84.3343L32.0207 83.6272L31.3136 84.3343L32.0207 85.0415ZM32.0209 85.0416L31.3137 85.7487L32.0209 86.4558L32.728 85.7487L32.0209 85.0416ZM32.0207 70.0157L31.3136 70.7228L32.0207 71.4299L32.7278 70.7228L32.0207 70.0157ZM23.9772 69.0433L23.2701 68.3362L23.9772 69.0433ZM23.5353 69.4852L24.2424 70.1923L23.5353 69.4852ZM32.7277 84.3345L24.2424 75.8492L22.8282 77.2634L31.3135 85.7487L32.7277 84.3345ZM31.3136 84.3343L31.3135 84.3345L32.7277 85.7487L32.7278 85.7486L31.3136 84.3343ZM32.728 84.3345L32.7278 84.3343L31.3136 85.7486L31.3137 85.7487L32.728 84.3345ZM39.799 75.8492L31.3137 84.3345L32.728 85.7487L41.2132 77.2634L39.799 75.8492ZM39.799 70.1924C41.3611 71.7545 41.3611 74.2871 39.799 75.8492L41.2132 77.2634C43.5564 74.9203 43.5564 71.1213 41.2132 68.7781L39.799 70.1924ZM39.3571 69.7504L39.799 70.1924L41.2132 68.7781L40.7713 68.3362L39.3571 69.7504ZM33.7002 69.7504C35.2623 68.1883 37.795 68.1883 39.3571 69.7504L40.7713 68.3362C38.4282 65.9931 34.6292 65.9931 32.286 68.3362L33.7002 69.7504ZM32.7278 70.7228L33.7002 69.7504L32.286 68.3362L31.3136 69.3086L32.7278 70.7228ZM30.3412 69.7504L31.3136 70.7228L32.7278 69.3086L31.7554 68.3362L30.3412 69.7504ZM24.6843 69.7504C26.2464 68.1883 28.7791 68.1883 30.3412 69.7504L31.7554 68.3362C29.4123 65.993 25.6133 65.993 23.2701 68.3362L24.6843 69.7504ZM24.2424 70.1923L24.6843 69.7504L23.2701 68.3362L22.8282 68.7781L24.2424 70.1923ZM24.2424 75.8492C22.6803 74.2871 22.6803 71.7544 24.2424 70.1923L22.8282 68.7781C20.485 71.1213 20.485 74.9203 22.8282 77.2634L24.2424 75.8492Z" fill="#F8F8F8" mask="url(#path-5-inside-2_200_295)"/>
</g>
</g>
<rect x="0.5" y="0.5" width="63" height="107" rx="4.5" stroke="#9747FF" stroke-dasharray="10 5"/>
<defs>
<clipPath id="clip0_200_295">
<rect width="24" height="24" fill="white" transform="translate(20 64)"/>
</clipPath>
</defs>
</svg>
